<?xml version="1.0" encoding="UTF-8"?>
<svg width="70px" height="63px" viewBox="0 0 70 63" version="1.1" xmlns="http://www.w3.org/2000/svg" xmlns:xlink="http://www.w3.org/1999/xlink">
    <title>Icon_3</title>
    <g id="Page-1" stroke="none" stroke-width="1" fill="none" fill-rule="evenodd">
        <g id="Group-65" transform="translate(-1131.5, -871)">
            <g id="Group-51" transform="translate(996.5, 871)">
                <g id="Icon_3" transform="translate(135, 0)">
                    <circle id="Oval-Copy-7" fill="#AADACA" cx="48" cy="22" r="22"></circle>
                    <g id="shopping-basket" transform="translate(0, 8)" fill="#0F4C37" fill-rule="nonzero">
                        <path d="M53.3197686,20.7029167 C52.0152237,19.1972917 50.1247778,18.3333333 48.1313416,18.3333333 L47.9345155,18.3333333 C46.7924665,8.03458333 38.0497266,0 27.4646031,0 C16.8794795,0 8.1367396,8.03458333 6.99469059,18.3333333 L6.86652477,18.3333333 C4.8753772,18.3333333 2.98722003,19.1972917 1.6803864,20.7029167 C0.373552763,22.2085417 -0.212348131,24.2045833 0.0691589392,26.1822917 L2.4974435,43.195625 C3.45868715,49.92625 9.30396404,55 16.0921752,55 L38.9079799,55 C45.696191,55 51.5414679,49.9239583 52.5027115,43.195625 L54.9309961,26.1822917 C55.2125032,24.206875 54.6243136,22.2108333 53.3197686,20.7029167 Z M27.4646031,4.58333333 C35.5207403,4.58333333 42.2059611,10.5714583 43.320546,18.3333333 L11.6086601,18.3333333 C12.723245,10.5714583 19.4084658,4.58333333 27.4646031,4.58333333 Z M50.3994189,25.53375 L47.9711343,42.5470833 C47.3303052,47.0341667 43.4349797,50.4189583 38.9079799,50.4189583 L16.0921752,50.4189583 C11.5628866,50.4189583 7.66756115,47.0341667 7.02902072,42.5470833 L4.60073616,25.53375 C4.5046118,24.866875 4.69686053,24.2183333 5.1362862,23.7072917 C5.57800054,23.19625 6.19136554,22.9166667 6.8642361,22.9166667 L48.1313416,22.9166667 C48.8042122,22.9166667 49.4175771,23.19625 49.8615802,23.7072917 C50.3010058,24.2183333 50.4932546,24.866875 50.3971302,25.53375 L50.3994189,25.53375 Z M29.7532784,29.7916667 L29.7532784,43.5416667 C29.7532784,44.8089583 28.7302405,45.8333333 27.4646031,45.8333333 C26.1989656,45.8333333 25.1759277,44.8089583 25.1759277,43.5416667 L25.1759277,29.7916667 C25.1759277,28.524375 26.1989656,27.5 27.4646031,27.5 C28.7302405,27.5 29.7532784,28.524375 29.7532784,29.7916667 Z M41.1966552,29.7916667 L41.1966552,43.5416667 C41.1966552,44.8089583 40.1736174,45.8333333 38.9079799,45.8333333 C37.6423424,45.8333333 36.6193045,44.8089583 36.6193045,43.5416667 L36.6193045,29.7916667 C36.6193045,28.524375 37.6423424,27.5 38.9079799,27.5 C40.1736174,27.5 41.1966552,28.524375 41.1966552,29.7916667 Z M18.3099016,29.7916667 L18.3099016,43.5416667 C18.3099016,44.8089583 17.2868637,45.8333333 16.0212262,45.8333333 C14.7555888,45.8333333 13.7325509,44.8089583 13.7325509,43.5416667 L13.7325509,29.7916667 C13.7325509,28.524375 14.7555888,27.5 16.0212262,27.5 C17.2868637,27.5 18.3099016,28.524375 18.3099016,29.7916667 Z" id="Shape"></path>
                    </g>
                </g>
            </g>
        </g>
    </g>
</svg>