<!DOCTYPE svg PUBLIC "-//W3C//DTD SVG 1.1//EN" "http://www.w3.org/Graphics/SVG/1.1/DTD/svg11.dtd">
<!-- Uploaded to: SVG Repo, www.svgrepo.com, Transformed by: SVG Repo Mixer Tools -->
<svg height="800px" width="800px" version="1.1" id="Capa_1" xmlns="http://www.w3.org/2000/svg" xmlns:xlink="http://www.w3.org/1999/xlink" viewBox="-49.56 -49.56 594.74 594.74" xml:space="preserve" fill="#000000">
<g id="SVGRepo_bgCarrier" stroke-width="0">
<path transform="translate(-49.56, -49.56), scale(18.585625)" d="M16,31.671025725081563C18.746603242931286,31.446242127463037,19.282283698837965,27.384250425401135,20.751148559280555,25.052557250561023C21.616779543609915,23.67844455139636,21.741086464393852,21.9065764579223,22.880312837446112,20.749137050446123C24.362193868237263,19.243564898325292,27.32330888447305,19.40239529249584,28.20287616141708,17.48169742453491C29.015958036874178,15.706182730429829,27.415078487428175,13.74272200567014,26.958318102288906,11.844058129217197C26.438632452022137,9.683826192790367,26.76431941104922,7.169209161464783,25.31654748704976,5.48379180949213C23.857402465684793,3.7851345159736103,21.36386974940196,3.565347494451986,19.239232259369707,2.8579181127132305C16.96037178749326,2.0991379150316156,14.707982450193168,0.7432101210199512,12.343292709614838,1.164155330611763C9.95660523215415,1.5890164205000845,7.599487021675125,3.0485359715649696,6.384409493061257,5.146242018709414C5.1878661661309895,7.211950678004017,6.91565548992418,10.00495592449144,5.956163489523211,12.190875250421062C4.916896782784583,14.558537698993684,0.11586784416744977,15.353709250625464,0.8106902964603702,17.844316107980898C1.570603707243541,20.568242984044232,6.2620018049432336,19.430120007609926,8.469018524817962,21.198261183031637C9.848750687902257,22.303627185307086,9.790231599959005,24.42980513846698,10.822378508735465,25.86513353278616C12.358595979184035,28.001434612055846,13.377466771005798,31.88565536101628,16,31.671025725081563" fill="#AADACA" strokewidth="0"/>
</g>
<g id="SVGRepo_tracerCarrier" stroke-linecap="round" stroke-linejoin="round"/>
<g id="SVGRepo_iconCarrier"> <g> <path style="fill:#0F4C37;" d="M495.622,113.089v150.03c0,0-32.11,6.326-38.725,7.158c-6.594,0.83-27.316,7.521-42.334-6.914 c-23.16-22.197-105.447-104.03-105.447-104.03s-14.188-13.922-36.969-1.89c-20.912,11.022-51.911,27.175-64.859,33.465 c-24.477,13.028-44.764-7.642-44.764-23.387c0-12.213,7.621-20.502,18.515-26.598c29.524-17.898,91.752-52.827,117.67-66.598 c15.754-8.379,27.105-9.097,48.734,9.124c26.638,22.403,50.344,42.824,50.344,42.824s7.732,6.453,20.063,3.854 C448.13,123.725,495.622,113.089,495.622,113.089z M168.098,367.3c3.985-10.238,2.653-21.689-4.987-29.545 c-6.865-7.027-16.888-8.879-26.445-6.689c2.673-9.479,1.197-19.568-5.705-26.688c-6.886-7.009-16.89-8.898-26.446-6.688 c2.653-9.465,1.181-19.553-5.725-26.652c-10.814-11.092-29.519-10.616-41.807,1.097c-12.223,11.729-20.053,32.979-9.144,45.487 c10.891,12.445,23.405,4.873,32.945,2.699c-2.654,9.465-10.606,18.269-0.813,30.658c9.784,12.395,23.404,4.875,32.954,2.721 c-2.663,9.429-10.268,19.117-0.851,30.604c9.502,11.522,25.065,5.383,35.344,2.19c-3.967,10.199-12.458,21.193-1.549,33.513 c10.892,12.409,36.063,6.668,48.358-5.063c12.262-11.729,13.439-30.318,2.654-41.445 C189.435,365.865,178.335,364.089,168.098,367.3z M392.442,289.246c-88.88-88.881-47.075-47.058-94.906-94.992 c0,0-14.375-14.311-33.321-5.998c-13.3,5.828-30.423,13.771-43.307,19.835c-14.158,7.424-24.347,9.722-29.131,9.69 c-27.37-0.179-49.576-22.178-49.576-49.521c0-17.738,9.417-33.181,23.462-41.947c19.75-13.667,65.21-37.847,65.21-37.847 s-13.849-17.549-44.187-17.549c-30.329,0-93.695,41.512-93.695,41.512s-17.976,11.514-43.601,1.143L0,96.373V268.05 c0,0,14.103,4.082,26.775,9.258c2.862-8.162,7.48-15.699,13.886-21.924c21.023-20.024,55.869-20.232,74.996-0.537 c5.762,5.987,9.783,13.129,11.835,21.024c7.707,2.379,14.688,6.593,20.298,12.373c5.779,5.947,9.785,13.129,11.854,20.984 c7.698,2.381,14.669,6.611,20.298,12.395c6.339,6.537,10.562,14.433,12.534,22.988c8.047,2.344,15.319,6.705,21.176,12.693 c11.495,11.807,15.575,27.826,13.103,43.278c0.02,0,0.058,0,0.076,0.035c0.188,0.246,7.122,7.976,11.446,12.336 c8.474,8.482,22.311,8.482,30.811,0c8.444-8.479,8.481-22.289,0-30.811c-0.304-0.303-30.572-31.963-28.136-34.418 c2.418-2.438,40.981,37.688,41.699,38.422c8.463,8.465,22.291,8.465,30.792,0c8.481-8.479,8.463-22.289,0-30.791 c-0.416-0.396-2.152-2.059-2.796-2.721c0,0-38.234-34.06-35.324-36.97c2.946-2.928,50.438,41.392,50.515,41.392 c8.537,7.688,21.687,7.631,29.9-0.586c7.991-7.99,8.162-20.629,1.078-29.146c-0.15-0.453-36.194-38.121-33.381-40.955 c2.854-2.871,38.519,33.853,38.594,33.929c8.444,8.463,22.291,8.463,30.792,0c8.463-8.464,8.463-22.291,0-30.83 C392.706,289.396,392.555,289.32,392.442,289.246z"/> </g> </g>
</svg>