<!DOCTYPE svg PUBLIC "-//W3C//DTD SVG 1.1//EN" "http://www.w3.org/Graphics/SVG/1.1/DTD/svg11.dtd">
<!-- Uploaded to: SVG Repo, www.svgrepo.com, Transformed by: SVG Repo Mixer Tools -->
<svg fill="#0F4C37" height="800px" width="800px" version="1.1" id="Capa_1" xmlns="http://www.w3.org/2000/svg" xmlns:xlink="http://www.w3.org/1999/xlink" viewBox="-43.5 -43.5 522.00 522.00" xml:space="preserve" stroke="#0F4C37" transform="matrix(1, 0, 0, 1, 0, 0)rotate(0)">
<g id="SVGRepo_bgCarrier" stroke-width="0">
<path transform="translate(-43.5, -43.5), scale(16.3125)" d="M16,30.83115585089514C18.333994039010847,30.6678344384492,20.47479453573363,29.51138268633879,22.374538998630026,28.145669307332795C24.134152889225625,26.880694844079283,25.293762046439227,25.048265853147125,26.524944611842926,23.264844723041712C27.756196200553795,21.481323609694225,29.50522400686675,19.817813860403863,29.617795268885033,17.65349970866274C29.729886587601722,15.49841302813451,27.823489589133338,13.822777289833974,27.122200293900924,11.78190581207888C26.39425690597532,9.663466377828817,26.8291395094332,7.113692862986937,25.402623810692383,5.386631725141397C23.94823040856667,3.6258194703814484,21.61841850219812,2.698695580432773,19.356890125604142,2.3805613846602416C17.17091592684599,2.0730555620940008,14.947675689153698,2.6909025097471293,12.952356713582198,3.635225131668676C11.142896268502462,4.491586672194603,10.106671301209758,6.342252953724833,8.490350339057947,7.523357833787877C6.67971943552835,8.846452099239164,3.9771828545225536,9.073379656576455,2.854075795314328,11.014408568685479C1.7343158998196293,12.949652688073051,2.2850246494637028,15.415015370079683,2.6475475837763813,17.621281253258726C3.0006469795053414,19.770196746412104,3.8548950775359296,21.74734912127731,4.92894701597587,23.64179611539253C6.075213316954401,25.66361710060346,7.190170184712938,27.80600844931527,9.1393901888855,29.071799863542676C11.148594768432844,30.37654427452414,13.610168291174137,30.998384508582262,16,30.83115585089514" fill="#AADACA" strokewidth="0"/>
</g>
<g id="SVGRepo_tracerCarrier" stroke-linecap="round" stroke-linejoin="round"/>
<g id="SVGRepo_iconCarrier"> <g> <path d="M74.575,281.775c14.73,7.672,43.244,12.17,44.508,12.365c0.342,0.053,2.078,0.662,2.078,2.246v21.426 c0,6.164,5.145,11.18,11.467,11.18h10.234c6.322,0,11.467-5.016,11.467-11.18v-22.547c0-2.107,1.559-2.295,1.877-2.371 c32.508-7.299,52.537-31.088,52.537-60.953c0-30.686-17.033-50.504-56.945-66.274c-30.361-12.17-39.143-19.533-39.143-32.826 c0-10.639,8.061-23.061,30.771-23.061c20.09,0,35.5,7.918,35.639,7.99c1.625,0.865,3.438,1.324,5.238,1.324 c4.402,0,8.289-2.66,9.902-6.777l5.518-14.113c1.922-5.137-0.996-9.621-4.713-11.225c-12.367-5.387-36.543-9.553-36.793-9.596 c-0.389-0.066-1.74-0.357-1.74-1.941l-0.08-20.465c0-6.166-5.145-11.182-11.467-11.182h-9.895c-6.318,0-11.461,5.016-11.461,11.184 l0.023,21.52c0,1.646-1.785,2.363-2.438,2.52c-30.52,7.268-49.59,29.621-49.59,57.822c0,35.15,29.055,51.035,60.428,62.957 c25.082,9.848,35.313,19.832,35.313,34.475c0,15.938-14.494,27.068-35.246,27.068c-17.727,0-41.717-11.236-41.957-11.35 c-1.535-0.729-3.16-1.098-4.832-1.098c-4.57,0-8.547,2.764-10.133,7.037l-5.271,14.268 C67.999,275.527,70.883,279.852,74.575,281.775z"/> <path d="M413.351,86.175L383.758,13.05C380.501,5.001,373.721,0,366.067,0c-6.06,0-11.709,3.037-15.908,8.552L302.37,71.314 c-4.73,6.212-5.933,13.416-3.299,19.764c2.635,6.349,8.585,10.585,16.326,11.623l18.994,2.543 c-18.828,124.368-71.874,210.619-157.892,256.581c-68.467,36.583-133.946,33.103-135.27,33.024 c-10.989-0.76-20.532,7.578-21.287,18.588c-0.755,11.02,7.566,20.565,18.586,21.32c0.592,0.041,3.775,0.239,9.093,0.239 c22.339,0,82.324-3.501,145.883-36.914c46.309-24.344,84.916-59.517,114.752-104.541c32.799-49.498,54.867-110.967,65.764-182.993 l18.505,2.478c1.131,0.152,2.259,0.229,3.354,0.229h0.001c6.79,0,12.674-2.949,16.141-8.093 C415.6,99.852,416.086,92.931,413.351,86.175z"/> </g> </g>
</svg>