<svg id="Layer_1" data-name="Layer 1" xmlns="http://www.w3.org/2000/svg" viewBox="0 0 1920 1080"><defs><style>.cls-1{fill:#fff;}.cls-2{fill:#023020;}.cls-3{font-size:176.16px;font-family:Arciform, Arciform Sans;}.cls-4{letter-spacing:0.01em;}.cls-5{letter-spacing:0em;}.cls-6{letter-spacing:0.02em;}.cls-7{letter-spacing:-0.04em;}.cls-8{letter-spacing:0.08em;}</style></defs><rect class="cls-1" width="1920" height="1080"/><path class="cls-2" d="M597.89,639.71h-1L551,638.86l.85-45.87a54.25,54.25,0,0,1,.46-6.12,54.07,54.07,0,0,1-51.33-55l.83-45.88,45.88.84a56.51,56.51,0,0,1,6.11.46,54.18,54.18,0,0,1,55-51.32l45.87.83-.83,45.88a56.7,56.7,0,0,1-.46,6.11,54.18,54.18,0,0,1,51.32,55l-.84,45.86L658,588.83a54.43,54.43,0,0,1-6.12-.46,54.16,54.16,0,0,1-54,51.34M561.4,628.85l35.68.65a43.9,43.9,0,0,0,44.69-43.09V586A53.86,53.86,0,0,1,607.71,552a9.06,9.06,0,0,1,8.78-11.9l27.26.5a9.06,9.06,0,0,1,8.89,9.23l-.52,28.31a44.31,44.31,0,0,0,6.09.54l35.67.64.66-35.67a44,44,0,0,0-43.1-44.7h-.36A53.84,53.84,0,0,1,617,533a9.06,9.06,0,0,1-11.9-8.78l.67-36.32,37.38.68a45.77,45.77,0,0,0,.53-6.08l.65-35.68-35.67-.65a44,44,0,0,0-44.71,43.09v.38A53.8,53.8,0,0,1,598,523.69a9,9,0,0,1-8.78,11.9L562,535.1a9.07,9.07,0,0,1-8.9-9.23l.51-28.31a44,44,0,0,0-6.08-.54l-35.68-.65-.64,35.68a43.88,43.88,0,0,0,43.09,44.69h.37a53.8,53.8,0,0,1,34.07-34.06,9,9,0,0,1,8.19,1.28,9.13,9.13,0,0,1,3.72,7.5l-.5,27.25a9.07,9.07,0,0,1-9.23,8.9l-28.31-.52a44,44,0,0,0-.53,6.09Zm4.09-51.91,24.46.45.45-24.48a44.31,44.31,0,0,0-24.91,24m52.45-26.66a44.39,44.39,0,0,0,24,24.92l.45-24.46ZM589.4,525.4h0Zm-26.1-.48,24.47.45a44.39,44.39,0,0,0-24-24.92Zm52.47-26.65-.45,24.48a44.41,44.41,0,0,0,24.92-24Z"/><text class="cls-3" transform="translate(737.11 599.48)">G<tspan class="cls-4" x="132.47" y="0">oo</tspan><tspan class="cls-5" x="330.12" y="0">d</tspan><tspan class="cls-6" x="428.77" y="0">l</tspan><tspan class="cls-7" x="461.19" y="0">e</tspan><tspan class="cls-8" x="544.86" y="0">f</tspan><tspan x="621.49" y="0">t</tspan></text></svg>