<svg id="Layer_1" data-name="Layer 1" xmlns="http://www.w3.org/2000/svg" viewBox="0 0 1080 1080"><defs><style>.cls-1{fill:#023020;}.cls-2{fill:#fff;}</style></defs><rect class="cls-1" width="1080" height="1080"/><path class="cls-2" d="M531,725.23l-1.8,0-83.41-1.53,1.53-83.4a98.35,98.35,0,0,1,.84-11.12,98.33,98.33,0,0,1-93.32-100l1.51-83.42,83.42,1.54a98,98,0,0,1,11.1.84c2.68-52.72,47-94.33,100-93.32l83.39,1.51-1.51,83.42a100.36,100.36,0,0,1-.83,11.1,98.51,98.51,0,0,1,93.31,100l-1.54,83.39-83.38-1.51a98.35,98.35,0,0,1-11.13-.84A98.49,98.49,0,0,1,531,725.23m-66.33-19.75,64.87,1.19a79.8,79.8,0,0,0,81.24-78.35v-.67a97.9,97.9,0,0,1-61.92-62,16.46,16.46,0,0,1,16-21.64l49.56.91a16.49,16.49,0,0,1,16.16,16.78l-1,51.48a81.88,81.88,0,0,0,11.08,1l64.85,1.18,1.19-64.86a79.93,79.93,0,0,0-78.35-81.26l-.67,0a97.85,97.85,0,0,1-62,61.95,16.46,16.46,0,0,1-21.64-16l1.22-66,68,1.23a81.73,81.73,0,0,0,1-11.06l1.18-64.86-64.85-1.18a79.91,79.91,0,0,0-81.27,78.33l0,.69a97.78,97.78,0,0,1,61.93,61.95,16.46,16.46,0,0,1-16,21.63l-49.53-.9a16.49,16.49,0,0,1-16.17-16.77l.93-51.48a81.73,81.73,0,0,0-11.07-1l-64.86-1.19-1.17,64.87a79.79,79.79,0,0,0,78.35,81.24l.67,0a97.76,97.76,0,0,1,61.95-61.93,16.39,16.39,0,0,1,14.88,2.33,16.56,16.56,0,0,1,6.76,13.62L535,614.33a16.46,16.46,0,0,1-16.77,16.17l-51.48-1a81.88,81.88,0,0,0-1,11.09Zm7.43-94.38,44.48.83.81-44.51a80.66,80.66,0,0,0-45.29,43.68m95.37-48.46A80.76,80.76,0,0,0,611.1,608l.83-44.48ZM515.53,517.4h0Zm-47.46-.87,44.49.81a80.66,80.66,0,0,0-43.68-45.29Zm95.4-48.46-.83,44.52A80.72,80.72,0,0,0,608,468.88Z"/></svg>