<?xml version="1.0" encoding="UTF-8"?>
<svg width="71px" height="58px" viewBox="0 0 71 58" version="1.1" xmlns="http://www.w3.org/2000/svg" xmlns:xlink="http://www.w3.org/1999/xlink">
    <title>Icon_1</title>
    <g id="Page-1" stroke="none" stroke-width="1" fill="none" fill-rule="evenodd">
        <g id="Group-65" transform="translate(-267.5, -876)">
            <g id="Group-64" transform="translate(198.5, 876)">
                <g id="Icon_1" transform="translate(69, 0)">
                    <circle id="Oval" fill="#AADACA" cx="22" cy="22" r="22"></circle>
                    <g id="recycler" transform="translate(16, 3)" fill="#0F4C37" fill-rule="nonzero">
                        <path d="M23.7336748,6.64033555 L20.48771,11.9058434 C19.7934907,12.9051613 18.4380135,13.1879041 17.4013123,12.5496437 C16.364611,11.9113834 16.0086163,10.5749478 16.5907185,9.50660332 L19.8366832,4.24109544 C21.4913492,1.60241357 24.3893803,0 27.5068796,0 C30.6243788,0 33.5224099,1.60241357 35.1770759,4.24109544 L44.8049374,19.8865219 L45.8158629,14.4722062 C46.0475462,13.2286946 47.2447475,12.4082001 48.4898868,12.6395805 C49.7350261,12.8709609 50.5565946,14.0665971 50.3249114,15.3101087 L49.1787374,21.4226766 C48.5736757,24.6689957 45.7410418,27.025797 42.4346496,27.0338765 C41.9876418,27.0338765 35.0601662,25.7152102 35.0601662,25.7152102 C33.84026,25.4504287 33.0567909,24.2594558 33.2977761,23.0361531 C33.5387613,21.8128503 34.7155882,21.0070381 35.9450125,21.223503 L40.8345907,22.1873199 L31.2663303,6.64033555 C30.4575305,5.33955363 29.0331768,4.54843741 27.5000025,4.54843741 C25.9668283,4.54843741 24.5424745,5.33955363 23.7336748,6.64033555 Z M53.6534006,34.2476223 L51.4344078,30.6487621 C51.0288087,29.9043575 50.2446216,29.4446242 49.3960838,29.4536508 C48.5475459,29.4629463 47.7734938,29.9395029 47.3841034,30.6924905 C46.994713,31.4454781 47.0536957,32.3516942 47.5374162,33.0480022 L49.7564091,36.6468624 C50.6187558,38.0259827 50.6548375,39.7661884 49.8503953,41.1797779 C49.0767008,42.5896564 47.5907091,43.461799 45.9809119,43.4508143 L29.0496298,43.4508143 L31.963204,40.5456276 C32.8332991,39.6485758 32.822938,38.2206061 31.9399171,37.3362414 C31.0568963,36.4518768 29.6270925,36.4374897 28.7264087,37.3039062 L24.8477559,41.1614631 C23.63726,42.3635562 22.9439795,43.9897731 22.9151246,45.6943786 C22.9151246,45.6943786 22.9151246,45.7172721 22.9151246,45.7264295 C22.9151246,45.7355869 22.9151246,45.756191 22.9151246,45.7722165 C22.9020951,47.5518473 23.6088149,49.2614418 24.8752641,50.5134629 L28.7309934,54.2954712 C29.3094262,54.8976313 30.1701054,55.137787 30.9772961,54.9222581 C31.7844867,54.7067292 32.4103228,54.0696573 32.6106773,53.2595524 C32.8110318,52.4494475 32.5541668,51.5946371 31.9402806,51.028567 L28.8960424,48.0295168 L45.9809119,48.0295168 C49.2554387,48.0182772 52.2684822,46.2413998 53.8596707,43.3831888 C55.4508591,40.5249778 55.3719761,37.0312981 53.6534006,34.2476223 L53.6534006,34.2476223 Z M15.5339461,16.4662311 C14.0163502,15.4341166 12.1469985,15.0546302 10.3463626,15.4131295 L4.31977975,16.5990135 C3.50261248,16.7428923 2.82709244,17.3165607 2.55356507,18.098927 C2.28003769,18.8812932 2.4512094,19.7502048 3.00111061,20.3707831 C3.55101182,20.9913614 4.39378528,21.2667142 5.20462607,21.0907207 L10.0368956,20.1406399 L1.34660442,34.2476223 C-0.371760069,37.0309498 -0.450855917,40.5241376 1.13977135,43.3821945 C2.73039862,46.2402513 5.74268453,48.0174522 9.01680076,48.0295168 L16.2216505,48.0295168 C17.4876793,48.0295168 18.5139984,47.0045394 18.5139984,45.7401656 C18.5139984,44.4757918 17.4876793,43.4508143 16.2216505,43.4508143 L9.01680076,43.4508143 C7.41028378,43.458427 5.92861485,42.5867559 5.15648676,41.1797779 C4.35204458,39.7661884 4.38812631,38.0259827 5.25047303,36.6468624 L14.0485046,22.3658893 L15.0708918,27.8465962 C15.3038411,29.0901078 16.5020687,29.9095773 17.747208,29.6769325 C18.9923474,29.4442877 19.8128896,28.2476266 19.5799402,27.0041149 L18.4337663,20.8915471 C18.1010501,19.0875415 17.0560906,17.4928648 15.5339461,16.4662311 Z" id="Shape"></path>
                    </g>
                </g>
            </g>
        </g>
    </g>
</svg>