<?xml version="1.0" encoding="UTF-8"?>
<svg width="73px" height="69px" viewBox="0 0 73 69" version="1.1" xmlns="http://www.w3.org/2000/svg" xmlns:xlink="http://www.w3.org/1999/xlink">
    <title>ICON_2</title>
    <g id="Page-1" stroke="none" stroke-width="1" fill="none" fill-rule="evenodd">
        <g id="Group-65" transform="translate(-709.5, -879)">
            <g id="Group-60" transform="translate(570.5, 879)">
                <g id="ICON_2" transform="translate(139, 0)">
                    <circle id="Oval-Copy-7" fill="#AADACA" cx="51" cy="47" r="22"></circle>
                    <g id="refund-alt-copy" fill="#0F4C37" fill-rule="nonzero">
                        <path d="M22.9166667,22.9166667 C22.9166667,23.7852083 23.5377083,24.51625 24.3925,24.660625 L31.3614583,25.8202083 C34.436875,26.3335417 36.6666667,28.9689583 36.6666667,32.0833333 C36.6666667,35.87375 33.5820833,38.9583333 29.7916667,38.9583333 L29.7916667,43.5416667 L25.2083333,43.5416667 L25.2083333,38.9583333 C21.4179167,38.9583333 18.3333333,35.87375 18.3333333,32.0833333 L22.9166667,32.0833333 C22.9166667,33.3483333 23.945625,34.375 25.2083333,34.375 L29.7916667,34.375 C31.0566667,34.375 32.0833333,33.3483333 32.0833333,32.0833333 C32.0833333,31.2147917 31.4622917,30.48375 30.6052083,30.339375 L23.6385417,29.1797917 C20.563125,28.6664583 18.3333333,26.0310417 18.3333333,22.9166667 C18.3333333,19.12625 21.4179167,16.0416667 25.2083333,16.0416667 L25.2083333,11.4583333 L29.7916667,11.4583333 L29.7916667,16.0416667 C33.5820833,16.0416667 36.6666667,19.12625 36.6666667,22.9166667 L32.0833333,22.9166667 C32.0833333,21.6516667 31.0566667,20.625 29.7916667,20.625 L25.2083333,20.625 C23.945625,20.625 22.9166667,21.6516667 22.9166667,22.9166667 Z M38.9583333,20.625 L50.3960417,20.625 C52.9329167,20.625 55,18.5602083 55,16.0210417 L55,4.58333333 L50.4166667,4.58333333 L50.4029167,12.2466667 C45.3864583,4.66125 36.9027083,0 27.5,0 C12.3360417,0 0,12.3360417 0,27.5 C0,42.6639583 12.3360417,55 27.5,55 C42.6639583,55 55,42.6639583 55,27.5 L50.4166667,27.5 C50.4166667,40.13625 40.13625,50.4166667 27.5,50.4166667 C14.86375,50.4166667 4.58333333,40.13625 4.58333333,27.5 C4.58333333,14.86375 14.86375,4.58333333 27.5,4.58333333 C35.8416667,4.58333333 43.3147917,8.985625 47.3595833,16.0416667 L38.9583333,16.0416667 L38.9583333,20.625 Z" id="Shape"></path>
                    </g>
                </g>
            </g>
        </g>
    </g>
</svg>